<svg xmlns="http://www.w3.org/2000/svg" xmlns:xlink="http://www.w3.org/1999/xlink" width="500" height="500" preserveAspectRatio="xMidYMid meet" version="1.0" viewBox="0 0 375 375" zoomAndPan="magnify"><defs><clipPath id="8b342e6d45"><path d="M 208 193 L 240 193 L 240 197 L 208 197 Z M 208 193" clip-rule="nonzero"/></clipPath><clipPath id="72d9ba51f0"><path d="M 208.421875 194.238281 L 239 190.980469 L 239.476562 195.453125 L 208.898438 198.714844 Z M 208.421875 194.238281" clip-rule="nonzero"/></clipPath><clipPath id="beec506a68"><path d="M 208.421875 194.238281 L 239 190.980469 L 239.476562 195.453125 L 208.898438 198.714844 Z M 208.421875 194.238281" clip-rule="nonzero"/></clipPath><clipPath id="84552e81fe"><path d="M 208.421875 194.238281 L 239 190.980469 L 239.476562 195.453125 L 208.898438 198.714844 Z M 208.421875 194.238281" clip-rule="nonzero"/></clipPath><clipPath id="d64df012da"><path d="M 66 106 L 283 106 L 283 253 L 66 253 Z M 66 106" clip-rule="nonzero"/></clipPath><clipPath id="daaf4c1830"><path d="M 43.269531 177.105469 L 261.648438 72.242188 L 316.839844 187.179688 L 98.460938 292.042969 Z M 43.269531 177.105469" clip-rule="nonzero"/></clipPath><clipPath id="feae07d537"><path d="M 43.269531 177.105469 L 261.648438 72.242188 L 316.839844 187.179688 L 98.460938 292.042969 Z M 43.269531 177.105469" clip-rule="nonzero"/></clipPath><clipPath id="c6c395b6e4"><path d="M 70 113 L 293 113 L 293 262 L 70 262 Z M 70 113" clip-rule="nonzero"/></clipPath><clipPath id="21d07d6afa"><path d="M 43.269531 177.105469 L 261.648438 72.242188 L 316.839844 187.179688 L 98.460938 292.042969 Z M 43.269531 177.105469" clip-rule="nonzero"/></clipPath><clipPath id="e9a5ccb754"><path d="M 43.269531 177.105469 L 261.648438 72.242188 L 316.839844 187.179688 L 98.460938 292.042969 Z M 43.269531 177.105469" clip-rule="nonzero"/></clipPath><clipPath id="7d36b125e4"><path d="M 76 115 L 295 115 L 295 258 L 76 258 Z M 76 115" clip-rule="nonzero"/></clipPath><clipPath id="1b74c998d8"><path d="M 43.269531 177.105469 L 261.648438 72.242188 L 316.839844 187.179688 L 98.460938 292.042969 Z M 43.269531 177.105469" clip-rule="nonzero"/></clipPath><clipPath id="9613674cc4"><path d="M 43.269531 177.105469 L 261.648438 72.242188 L 316.839844 187.179688 L 98.460938 292.042969 Z M 43.269531 177.105469" clip-rule="nonzero"/></clipPath></defs><path fill="#ff1616" fill-opacity="1" fill-rule="nonzero" d="M 250.285156 159.117188 C 248.957031 149.691406 237.160156 135.574219 221.410156 148.769531 C 220.636719 149.417969 220.261719 149.652344 219.742188 148.566406 C 218.96875 146.953125 217.578125 146.058594 215.816406 145.75 C 203.421875 143.707031 201.929688 160.503906 201.417969 169.007812 C 200.4375 219.578125 234.449219 213.21875 222.222656 183.324219 C 221.65625 181.929688 222.527344 182.601562 223.882812 182.957031 C 243.855469 188.148438 252.175781 172.582031 250.285156 159.117188 Z M 221.890625 180.839844 C 220.914062 180.4375 220.273438 180.941406 220.769531 181.851562 C 233.304688 211.914062 204.4375 217.363281 202.574219 175.128906 C 202.183594 166.320312 202.828125 143.890625 216.820312 147.023438 C 219.667969 148.003906 219.46875 152.257812 220.46875 152.15625 C 221.414062 152.101562 220.535156 150.796875 222.160156 149.441406 C 238.007812 136.246094 248.683594 152.566406 249.457031 159.347656 C 251.066406 173.542969 241.144531 188.738281 221.890625 180.839844 Z M 228.179688 164.433594 C 227.890625 169.753906 235.5625 169.71875 235.726562 164.953125 C 235.761719 160.414062 228.347656 159.144531 228.179688 164.433594 Z M 229.292969 164.324219 C 229.628906 160.195312 234.679688 161.84375 234.796875 165.042969 C 234.613281 168.550781 228.9375 167.996094 229.292969 164.324219 Z M 229.292969 164.324219"/><path fill="#ffd10f" fill-opacity="1" fill-rule="nonzero" d="M 187.226562 155.894531 C 169.1875 151.972656 157.027344 188.460938 174.816406 196.703125 C 179.808594 199.019531 190.828125 202.910156 197.015625 193.199219 C 201.402344 186.308594 204.273438 159.601562 187.226562 155.894531 Z M 196.003906 193.589844 C 191.335938 200.632812 180.964844 199.085938 174.359375 195.578125 C 157.925781 185.992188 171.347656 154.320312 185.691406 156.46875 C 203.492188 159.140625 200.6875 186.519531 196.003906 193.589844 Z M 180.421875 180.691406 C 179.070312 187.195312 189.054688 188.410156 190.214844 182.398438 C 191.347656 176.511719 182.203125 172.105469 180.421875 180.691406 Z M 189.242188 183.222656 C 187.675781 187.253906 179.804688 186.121094 181.070312 180.613281 C 182.859375 172.820312 191.449219 177.53125 189.242188 183.222656 Z M 189.242188 183.222656"/><path fill="#008037" fill-opacity="1" fill-rule="nonzero" d="M 184.789062 236.96875 C 167.421875 240.097656 160.328125 223.058594 158.558594 227.792969 C 156.707031 232.761719 151.085938 239.308594 140.304688 235.023438 C 135.121094 232.960938 132.414062 225.921875 132.199219 220.425781 C 131.664062 206.539062 131.121094 149.421875 150.582031 151.160156 C 156.695312 151.703125 166.808594 158.398438 161.402344 184.738281 C 159.191406 195.507812 157.046875 204.785156 166.792969 208.875 C 170.046875 210.445312 175.265625 209.53125 177.722656 207.023438 C 186.914062 197.628906 194.410156 202.257812 198.605469 208.769531 C 204.625 218.105469 203.199219 233.648438 184.789062 236.96875 Z M 191.140625 203.804688 C 186.179688 201.34375 181.4375 205.25 177.984375 208.542969 C 174.78125 211.652344 170.558594 212.011719 166.789062 210.644531 C 160.675781 208.425781 157.082031 202.082031 158.09375 195.664062 C 160.253906 181.953125 164.292969 165.625 157.011719 156.59375 C 154.546875 153.53125 152.230469 152.304688 149.625 152.5 C 140.421875 153.1875 132.019531 174.652344 133.734375 219.148438 C 133.964844 225.113281 135.097656 230.597656 140.582031 233.28125 C 152.902344 239.308594 157.988281 227.257812 158.191406 223.445312 C 158.21875 222.871094 158.675781 222.628906 159.207031 223.039062 C 171.613281 238.414062 186.542969 237.65625 194.863281 231.011719 C 203.132812 224.40625 201.417969 208.90625 191.140625 203.804688 Z M 191.140625 203.804688"/><g clip-path="url(#8b342e6d45)"><g clip-path="url(#72d9ba51f0)"><g clip-path="url(#beec506a68)"><g clip-path="url(#84552e81fe)"><path fill="#000" fill-opacity="1" fill-rule="nonzero" d="M 208.753906 196.464844 C 208.878906 196.355469 209.007812 196.25 209.140625 196.148438 C 209.273438 196.050781 209.410156 195.953125 209.546875 195.859375 C 209.824219 195.667969 210.109375 195.492188 210.398438 195.324219 C 210.976562 194.988281 211.582031 194.695312 212.203125 194.4375 C 212.515625 194.3125 212.832031 194.195312 213.148438 194.089844 C 213.46875 193.980469 213.792969 193.886719 214.117188 193.800781 C 214.199219 193.78125 214.28125 193.757812 214.363281 193.738281 L 214.609375 193.679688 C 214.773438 193.644531 214.941406 193.609375 215.105469 193.578125 L 215.230469 193.554688 L 215.355469 193.535156 C 215.4375 193.519531 215.523438 193.503906 215.605469 193.492188 L 215.855469 193.453125 L 216.105469 193.421875 C 216.441406 193.382812 216.78125 193.351562 217.117188 193.332031 C 217.203125 193.328125 217.285156 193.324219 217.371094 193.324219 L 217.5 193.316406 L 217.625 193.316406 C 217.710938 193.316406 217.792969 193.3125 217.878906 193.3125 L 218.132812 193.3125 C 218.472656 193.320312 218.808594 193.332031 219.148438 193.359375 L 219.273438 193.371094 C 219.316406 193.375 219.359375 193.378906 219.402344 193.382812 L 219.652344 193.410156 C 219.738281 193.417969 219.820312 193.429688 219.90625 193.441406 L 220.03125 193.457031 C 220.074219 193.460938 220.117188 193.46875 220.15625 193.472656 C 220.828125 193.570312 221.492188 193.710938 222.148438 193.890625 L 222.390625 193.960938 C 222.472656 193.984375 222.554688 194.011719 222.632812 194.035156 L 222.757812 194.070312 C 222.796875 194.085938 222.835938 194.097656 222.875 194.109375 L 223.117188 194.191406 L 223.238281 194.230469 L 223.359375 194.273438 L 223.597656 194.359375 L 223.714844 194.40625 L 224.070312 194.542969 C 225.285156 195.03125 226.542969 195.398438 227.832031 195.605469 C 227.871094 195.613281 227.914062 195.621094 227.953125 195.628906 L 228.074219 195.644531 C 228.15625 195.65625 228.234375 195.667969 228.316406 195.679688 L 228.558594 195.710938 C 228.601562 195.714844 228.640625 195.71875 228.679688 195.722656 L 228.800781 195.734375 C 229.128906 195.769531 229.453125 195.789062 229.777344 195.804688 C 230.429688 195.828125 231.085938 195.816406 231.738281 195.761719 C 232.390625 195.703125 233.039062 195.609375 233.679688 195.472656 C 234.003906 195.40625 234.320312 195.328125 234.636719 195.242188 C 234.957031 195.15625 235.269531 195.058594 235.582031 194.953125 C 235.894531 194.847656 236.203125 194.730469 236.507812 194.609375 C 236.816406 194.484375 237.117188 194.351562 237.414062 194.207031 C 237.714844 194.0625 238.007812 193.914062 238.296875 193.75 C 238.441406 193.667969 238.585938 193.585938 238.726562 193.496094 C 238.796875 193.453125 238.867188 193.410156 238.9375 193.363281 C 239.007812 193.320312 239.078125 193.273438 239.144531 193.226562 C 239.019531 193.335938 238.890625 193.441406 238.757812 193.539062 C 238.625 193.640625 238.488281 193.738281 238.347656 193.832031 C 238.074219 194.023438 237.789062 194.199219 237.5 194.367188 C 236.921875 194.703125 236.316406 194.996094 235.695312 195.253906 C 235.382812 195.378906 235.066406 195.496094 234.746094 195.601562 C 234.429688 195.710938 234.105469 195.804688 233.777344 195.890625 C 233.453125 195.976562 233.125 196.050781 232.792969 196.113281 L 232.667969 196.136719 L 232.542969 196.15625 C 232.460938 196.171875 232.375 196.1875 232.292969 196.199219 L 232.042969 196.238281 L 231.789062 196.269531 C 231.453125 196.308594 231.117188 196.339844 230.78125 196.359375 C 230.695312 196.363281 230.609375 196.363281 230.527344 196.367188 L 230.398438 196.375 L 230.273438 196.375 C 230.1875 196.375 230.101562 196.378906 230.019531 196.378906 L 229.765625 196.378906 C 229.425781 196.371094 229.085938 196.359375 228.75 196.332031 L 228.621094 196.320312 C 228.582031 196.316406 228.539062 196.3125 228.496094 196.308594 L 228.242188 196.28125 C 228.160156 196.273438 228.074219 196.261719 227.992188 196.25 L 227.863281 196.234375 C 227.824219 196.230469 227.78125 196.222656 227.738281 196.21875 L 227.488281 196.179688 C 227.40625 196.167969 227.320312 196.152344 227.238281 196.136719 C 227.070312 196.109375 226.90625 196.074219 226.738281 196.039062 C 226.695312 196.03125 226.65625 196.023438 226.613281 196.011719 L 226.492188 195.984375 L 226.367188 195.957031 C 226.324219 195.945312 226.285156 195.9375 226.242188 195.925781 L 225.996094 195.863281 C 225.957031 195.855469 225.914062 195.84375 225.875 195.832031 L 225.75 195.800781 L 225.507812 195.730469 C 225.425781 195.707031 225.34375 195.679688 225.261719 195.65625 L 225.140625 195.617188 C 225.101562 195.605469 225.0625 195.59375 225.019531 195.582031 L 224.78125 195.5 L 224.660156 195.460938 L 224.539062 195.417969 L 224.300781 195.328125 L 224.242188 195.308594 L 224.183594 195.285156 L 224.0625 195.238281 L 223.828125 195.148438 C 222.613281 194.660156 221.355469 194.292969 220.066406 194.082031 C 220.023438 194.074219 219.984375 194.070312 219.945312 194.0625 L 219.824219 194.046875 C 219.742188 194.035156 219.660156 194.019531 219.582031 194.011719 L 219.339844 193.980469 C 219.296875 193.976562 219.257812 193.96875 219.21875 193.964844 L 219.09375 193.953125 C 218.769531 193.921875 218.445312 193.898438 218.117188 193.886719 C 217.464844 193.859375 216.8125 193.875 216.160156 193.929688 C 215.507812 193.984375 214.859375 194.082031 214.214844 194.214844 C 213.894531 194.28125 213.578125 194.363281 213.257812 194.449219 C 212.941406 194.535156 212.628906 194.632812 212.316406 194.738281 C 212.003906 194.84375 211.695312 194.957031 211.386719 195.082031 C 211.082031 195.207031 210.78125 195.339844 210.480469 195.484375 C 210.183594 195.625 209.890625 195.777344 209.601562 195.941406 C 209.453125 196.023438 209.3125 196.105469 209.171875 196.191406 C 209.097656 196.234375 209.027344 196.28125 208.960938 196.324219 C 208.890625 196.371094 208.820312 196.417969 208.753906 196.464844"/></g></g></g></g><g clip-path="url(#d64df012da)"><g clip-path="url(#daaf4c1830)"><g clip-path="url(#feae07d537)"><path fill="#fac2a6" fill-opacity="1" fill-rule="evenodd" d="M 199.367188 232.734375 C 228.410156 219.105469 251.925781 200.882812 266.527344 182.40625 C 272.332031 175.007812 276.828125 167.640625 279.484375 160.429688 C 279.804688 159.515625 280.125 158.601562 280.363281 157.683594 C 283.066406 148.570312 283.0625 139.992188 280.128906 132.464844 C 279.785156 131.585938 279.429688 130.675781 278.992188 129.84375 C 275.832031 123.183594 270.328125 117.96875 263.09375 114.226562 C 254.40625 109.703125 243.117188 107.265625 230.171875 106.949219 C 215.210938 106.597656 198.011719 109.085938 180.027344 114.433594 C 169.675781 117.519531 159.046875 121.621094 148.425781 126.640625 C 140.578125 130.449219 133.128906 134.589844 126.191406 138.960938 C 107.515625 150.777344 92.328125 164.441406 81.878906 178.078125 C 67.371094 196.988281 62.023438 215.992188 69.125 230.617188 C 76.199219 245.179688 94.375 252.644531 118.113281 252.949219 C 141.609375 253.253906 170.515625 246.585938 199.367188 232.734375 Z M 199.367188 232.734375 C 170.53125 246.539062 141.59375 253.21875 118.117188 252.789062 C 94.640625 252.359375 76.621094 244.816406 69.742188 230.324219 C 62.894531 215.894531 68.429688 197.28125 82.902344 178.871094 C 93.390625 165.496094 108.671875 152.265625 127.292969 140.757812 C 134.230469 136.464844 141.597656 132.40625 149.410156 128.695312 C 159.875 123.589844 170.371094 119.472656 180.613281 116.234375 C 198.339844 110.691406 215.335938 107.941406 230.15625 108.078125 C 242.960938 108.183594 254.167969 110.378906 262.8125 114.722656 C 270.035156 118.351562 275.488281 123.46875 278.699219 129.984375 C 279.105469 130.832031 279.445312 131.710938 279.789062 132.585938 C 282.320312 140.027344 281.746094 148.402344 278.664062 157.136719 C 278.359375 158.003906 278.007812 158.855469 277.671875 159.738281 C 274.953125 166.734375 270.828125 174.128906 265.28125 181.398438 C 251.050781 200.058594 227.984375 218.632812 199.367188 232.734375 Z M 199.367188 232.734375"/></g></g></g><g clip-path="url(#c6c395b6e4)"><g clip-path="url(#21d07d6afa)"><g clip-path="url(#e9a5ccb754)"><path fill="#fac2a6" fill-opacity="1" fill-rule="evenodd" d="M 206.503906 239.847656 C 236.117188 225.910156 260.230469 207.433594 275.367188 188.824219 C 279.257812 184.027344 282.558594 179.238281 285.160156 174.5 C 287.164062 170.933594 288.75 167.40625 289.949219 163.902344 C 291.28125 160.019531 292.128906 156.203125 292.441406 152.527344 C 292.921875 146.363281 291.957031 140.613281 289.421875 135.417969 C 286.371094 129.308594 281.34375 124.503906 274.71875 120.953125 C 270.910156 118.933594 266.546875 117.339844 261.777344 116.144531 C 254.980469 114.398438 247.332031 113.460938 238.945312 113.398438 C 221.449219 113.261719 200.945312 116.773438 179.65625 124.152344 C 171.726562 126.875 163.679688 130.179688 155.667969 133.984375 C 147.675781 137.90625 140.0625 142.121094 132.980469 146.605469 C 113.914062 158.605469 98.386719 172.394531 87.566406 186.167969 C 85.101562 189.277344 82.859375 192.4375 80.910156 195.539062 C 78.761719 198.976562 76.9375 202.335938 75.417969 205.671875 C 73.367188 210.144531 71.882812 214.542969 71.109375 218.761719 C 69.726562 226.121094 70.332031 233.046875 73.222656 239.234375 C 78.441406 250.355469 90.273438 257.503906 106.292969 260.390625 C 108.496094 260.816406 110.796875 261.113281 113.183594 261.332031 C 116.53125 261.648438 119.996094 261.785156 123.59375 261.785156 C 134.128906 261.734375 145.730469 260.253906 157.902344 257.453125 C 173.472656 253.824219 190.011719 247.96875 206.503906 239.847656 Z M 206.503906 239.847656 C 189.871094 247.675781 173.289062 253.191406 157.691406 256.515625 C 145.554688 259.136719 134.066406 260.363281 123.601562 260.296875 C 120.035156 260.285156 116.621094 260.082031 113.316406 259.785156 C 111.015625 259.566406 108.746094 259.253906 106.574219 258.894531 C 90.886719 256.285156 79.195312 249.671875 73.871094 238.921875 C 70.898438 232.894531 70.160156 226.113281 71.414062 218.816406 C 72.109375 214.597656 73.496094 210.160156 75.515625 205.707031 C 77 202.386719 78.855469 199.007812 81.035156 195.636719 C 83.035156 192.554688 85.304688 189.460938 87.820312 186.367188 C 98.8125 172.871094 114.625 159.507812 133.753906 147.878906 C 140.898438 143.523438 148.441406 139.421875 156.46875 135.648438 C 164.398438 131.757812 172.351562 128.421875 180.183594 125.582031 C 201.234375 117.960938 221.535156 114.023438 238.9375 113.882812 C 247.3125 113.832031 254.960938 114.605469 261.707031 116.335938 C 266.480469 117.53125 270.746094 119.253906 274.503906 121.335938 C 280.933594 124.902344 285.78125 129.75 288.578125 135.820312 C 290.953125 140.855469 291.726562 146.457031 291.105469 152.40625 C 290.730469 155.953125 289.851562 159.621094 288.503906 163.394531 C 287.339844 166.800781 285.773438 170.277344 283.847656 173.765625 C 281.3125 178.472656 278.125 183.25 274.328125 188 C 259.515625 206.777344 235.765625 225.515625 206.503906 239.847656 Z M 206.503906 239.847656"/></g></g></g><g clip-path="url(#7d36b125e4)"><g clip-path="url(#1b74c998d8)"><g clip-path="url(#9613674cc4)"><path fill="#fac2a6" fill-opacity="1" fill-rule="evenodd" d="M 207.289062 233.820312 C 236.378906 221.292969 260.464844 204.675781 276.109375 187.707031 C 280.222656 183.203125 283.789062 178.726562 286.617188 174.203125 C 288.828125 170.734375 290.640625 167.257812 291.933594 163.875 C 293.460938 159.894531 294.308594 156 294.621094 152.238281 C 295.1875 145.753906 294.082031 139.792969 291.144531 134.589844 C 287.816406 128.652344 282.445312 124.214844 275.3125 121.269531 C 271.496094 119.652344 267.144531 118.578125 262.398438 117.609375 C 255.839844 116.269531 248.484375 115.273438 240.371094 115.199219 C 223.421875 115.039062 203.554688 117.886719 182.683594 124.542969 C 174.917969 127.027344 167.097656 130.140625 159.175781 133.625 C 151.519531 137.664062 144.246094 141.835938 137.46875 146.375 C 119.269531 158.519531 104.707031 172.324219 94.265625 185.636719 C 89.285156 192 85.414062 198.34375 82.4375 204.304688 C 76.40625 216.300781 74.496094 227.316406 78.714844 236.597656 C 82.925781 246.039062 92.589844 252.421875 105.898438 255.488281 C 108.035156 255.945312 110.238281 256.371094 112.574219 256.652344 C 117.4375 257.203125 122.695312 257.324219 128.246094 257.066406 C 151.183594 255.953125 179.21875 248.058594 207.289062 233.820312 Z M 207.289062 233.820312 C 178.933594 246.714844 150.851562 253.183594 128.105469 253.523438 C 122.78125 253.59375 117.722656 253.300781 113.019531 252.75 C 110.8125 252.488281 108.6875 252.226562 106.628906 251.851562 C 94.148438 249.507812 84.855469 244.308594 80.46875 235.753906 C 75.984375 227.003906 76.859375 216 82.824219 204.519531 C 85.847656 198.660156 90.351562 192.808594 95.8125 186.941406 C 107.058594 174.886719 122.875 163.441406 141.578125 153.097656 C 148.441406 149.324219 155.707031 145.632812 163.335938 142.289062 C 170.765625 138.441406 178.152344 135.09375 185.457031 132.148438 C 205.171875 124.082031 224.007812 119.007812 240.429688 117.816406 C 248.375 117.207031 255.757812 117.269531 262.207031 118.621094 C 266.804688 119.621094 270.84375 121.289062 274.347656 123.253906 C 280.328125 126.554688 284.585938 131.085938 286.855469 136.648438 C 288.660156 141.152344 288.78125 146.066406 287.71875 151.265625 C 287.140625 154.390625 285.980469 157.554688 284.574219 160.871094 C 283.289062 163.855469 281.742188 166.964844 279.902344 170.128906 C 277.4375 174.402344 274.484375 178.828125 270.949219 183.289062 C 256.875 201.03125 234.75 219.230469 207.289062 233.820312 Z M 207.289062 233.820312"/></g></g></g><g fill="#000" fill-opacity="1"><g><g><path d="M 4.433594 -1.675781 C 4.449219 -1.675781 4.375 -1.613281 4.222656 -1.476562 C 4.074219 -1.34375 3.890625 -1.191406 3.695312 -1.027344 C 3.5 -0.859375 3.320312 -0.707031 3.152344 -0.574219 C 2.988281 -0.4375 2.894531 -0.363281 2.894531 -0.347656 C 2.820312 -0.273438 2.699219 -0.210938 2.535156 -0.164062 C 2.367188 -0.121094 2.246094 -0.0898438 2.171875 -0.0898438 C 2.097656 -0.0898438 2.019531 -0.105469 1.945312 -0.152344 C 1.871094 -0.195312 1.796875 -0.242188 1.71875 -0.285156 C 1.644531 -0.332031 1.582031 -0.378906 1.539062 -0.421875 L 1.476562 -0.484375 C 1.476562 -0.648438 1.507812 -0.785156 1.582031 -0.875 C 1.660156 -0.964844 1.6875 -1.054688 1.6875 -1.160156 C 1.703125 -1.464844 1.734375 -1.6875 1.796875 -1.839844 C 1.855469 -1.992188 1.914062 -2.113281 1.976562 -2.1875 C 2.035156 -2.261719 2.082031 -2.308594 2.125 -2.339844 C 2.171875 -2.367188 2.1875 -2.414062 2.1875 -2.472656 C 2.246094 -2.472656 2.292969 -2.472656 2.324219 -2.488281 C 2.351562 -2.503906 2.367188 -2.519531 2.382812 -2.535156 C 2.398438 -2.550781 2.398438 -2.5625 2.398438 -2.578125 C 2.398438 -2.59375 2.414062 -2.59375 2.429688 -2.59375 L 2.457031 -2.578125 C 2.503906 -2.578125 2.535156 -2.59375 2.550781 -2.640625 C 2.5625 -2.683594 2.5625 -2.714844 2.5625 -2.730469 C 2.578125 -2.714844 2.59375 -2.714844 2.609375 -2.714844 C 2.65625 -2.714844 2.699219 -2.746094 2.746094 -2.789062 C 2.789062 -2.835938 2.820312 -2.882812 2.851562 -2.941406 C 2.882812 -3 2.894531 -3.046875 2.910156 -3.09375 L 2.925781 -3.152344 C 2.910156 -3.136719 2.910156 -3.152344 2.925781 -3.199219 C 2.941406 -3.242188 2.957031 -3.289062 2.972656 -3.332031 C 3 -3.378906 3.03125 -3.4375 3.0625 -3.515625 C 3.0625 -3.558594 3.046875 -3.605469 3.03125 -3.664062 C 3.015625 -3.726562 3 -3.785156 3 -3.863281 C 3 -3.890625 3 -3.921875 3.015625 -3.953125 C 3.03125 -3.980469 3.03125 -4.011719 3.03125 -4.042969 C 3.03125 -4.117188 3 -4.191406 2.941406 -4.269531 C 2.882812 -4.34375 2.804688 -4.390625 2.730469 -4.390625 C 2.535156 -4.359375 2.382812 -4.328125 2.277344 -4.300781 C 2.171875 -4.269531 2.097656 -4.238281 2.035156 -4.207031 C 1.976562 -4.179688 1.929688 -4.148438 1.902344 -4.117188 C 1.871094 -4.085938 1.824219 -4.042969 1.765625 -3.996094 C 1.570312 -3.890625 1.371094 -3.769531 1.191406 -3.648438 C 1.011719 -3.53125 0.828125 -3.378906 0.664062 -3.199219 C 0.496094 -3.015625 0.347656 -2.789062 0.210938 -2.535156 C 0.0742188 -2.277344 -0.03125 -1.960938 -0.121094 -1.597656 C -0.152344 -1.492188 -0.164062 -1.386719 -0.164062 -1.28125 C -0.164062 -1.085938 -0.136719 -0.890625 -0.0585938 -0.695312 C 0.015625 -0.496094 0.121094 -0.347656 0.257812 -0.242188 C 0.332031 -0.179688 0.390625 -0.105469 0.421875 -0.015625 C 0.453125 0.0742188 0.511719 0.136719 0.589844 0.152344 C 0.722656 0.195312 0.875 0.257812 1.039062 0.316406 C 1.207031 0.378906 1.433594 0.4375 1.71875 0.484375 C 1.734375 0.484375 1.75 0.484375 1.765625 0.484375 C 1.78125 0.484375 1.796875 0.484375 1.808594 0.484375 C 1.824219 0.484375 1.871094 0.46875 1.929688 0.453125 C 1.992188 0.4375 2.050781 0.421875 2.125 0.40625 C 2.203125 0.390625 2.261719 0.378906 2.324219 0.363281 C 2.382812 0.347656 2.414062 0.347656 2.429688 0.347656 C 2.503906 0.273438 2.578125 0.226562 2.65625 0.195312 C 2.730469 0.164062 2.804688 0.152344 2.882812 0.136719 C 2.957031 0.121094 3.015625 0.105469 3.0625 0.0898438 C 3.105469 0.0742188 3.121094 0.03125 3.121094 -0.046875 C 3.199219 -0.121094 3.304688 -0.210938 3.453125 -0.332031 C 3.605469 -0.453125 3.753906 -0.574219 3.90625 -0.695312 C 4.058594 -0.816406 4.191406 -0.933594 4.3125 -1.070312 C 4.433594 -1.207031 4.496094 -1.328125 4.496094 -1.433594 C 4.496094 -1.476562 4.480469 -1.492188 4.433594 -1.492188 Z M 2.277344 -2.972656 C 2.382812 -3.015625 2.472656 -3.09375 2.550781 -3.183594 C 2.625 -3.273438 2.699219 -3.347656 2.777344 -3.425781 C 2.789062 -3.425781 2.789062 -3.425781 2.789062 -3.410156 C 2.789062 -3.304688 2.761719 -3.210938 2.699219 -3.121094 C 2.640625 -3.03125 2.578125 -2.957031 2.503906 -2.894531 C 2.429688 -2.835938 2.351562 -2.777344 2.292969 -2.730469 C 2.230469 -2.683594 2.1875 -2.667969 2.171875 -2.667969 C 2.171875 -2.683594 2.171875 -2.683594 2.171875 -2.683594 C 2.171875 -2.683594 2.171875 -2.683594 2.171875 -2.699219 C 2.171875 -2.746094 2.1875 -2.789062 2.21875 -2.835938 C 2.246094 -2.882812 2.277344 -2.910156 2.292969 -2.925781 Z M 2.277344 -2.972656" transform="translate(226.115308, 203.914557)"/></g></g></g><g fill="#000" fill-opacity="1"><g><g><path d="M 6.046875 -1.765625 C 6.035156 -1.765625 5.972656 -1.71875 5.882812 -1.613281 C 5.792969 -1.507812 5.65625 -1.359375 5.460938 -1.160156 C 5.265625 -0.964844 5.128906 -0.828125 5.054688 -0.738281 C 4.976562 -0.648438 4.933594 -0.589844 4.902344 -0.558594 C 4.871094 -0.527344 4.855469 -0.511719 4.855469 -0.511719 C 4.855469 -0.511719 4.828125 -0.511719 4.78125 -0.496094 C 4.734375 -0.484375 4.675781 -0.4375 4.617188 -0.378906 C 4.554688 -0.316406 4.480469 -0.257812 4.40625 -0.195312 C 4.328125 -0.136719 4.253906 -0.0742188 4.179688 -0.015625 C 4.101562 0.046875 4.042969 0.0898438 3.996094 0.121094 C 3.96875 0.0898438 3.953125 0.046875 3.953125 -0.03125 C 3.953125 -0.0898438 3.953125 -0.136719 3.96875 -0.179688 C 3.980469 -0.226562 3.980469 -0.273438 3.980469 -0.316406 C 3.96875 -0.363281 3.953125 -0.421875 3.953125 -0.484375 C 3.953125 -0.542969 3.953125 -0.601562 3.953125 -0.648438 C 3.953125 -0.722656 3.953125 -0.785156 3.96875 -0.84375 C 3.980469 -0.90625 3.980469 -0.964844 3.980469 -1.027344 C 3.980469 -1.085938 3.96875 -1.144531 3.953125 -1.207031 C 3.9375 -1.265625 3.921875 -1.328125 3.921875 -1.402344 C 3.921875 -1.476562 3.9375 -1.554688 3.96875 -1.628906 C 3.996094 -1.703125 4.011719 -1.78125 4.011719 -1.855469 C 3.996094 -1.871094 3.980469 -1.886719 3.96875 -1.902344 C 3.980469 -1.902344 3.996094 -1.914062 4.027344 -1.960938 C 4.058594 -2.007812 4.074219 -2.050781 4.085938 -2.113281 C 4.101562 -2.171875 4.117188 -2.230469 4.132812 -2.292969 C 4.148438 -2.351562 4.164062 -2.382812 4.179688 -2.398438 C 4.179688 -2.414062 4.179688 -2.429688 4.179688 -2.445312 C 4.179688 -2.457031 4.179688 -2.472656 4.179688 -2.488281 C 4.179688 -2.503906 4.179688 -2.519531 4.179688 -2.519531 C 4.179688 -2.519531 4.179688 -2.535156 4.179688 -2.550781 C 4.179688 -2.578125 4.191406 -2.609375 4.222656 -2.65625 C 4.253906 -2.699219 4.269531 -2.730469 4.269531 -2.746094 C 4.269531 -2.761719 4.253906 -2.777344 4.238281 -2.777344 C 4.222656 -2.777344 4.207031 -2.789062 4.207031 -2.835938 L 4.253906 -2.835938 C 4.269531 -2.835938 4.285156 -2.835938 4.300781 -2.851562 L 4.238281 -2.910156 C 4.253906 -2.957031 4.269531 -3 4.285156 -3.0625 C 4.300781 -3.121094 4.300781 -3.183594 4.300781 -3.226562 C 4.300781 -3.242188 4.285156 -3.273438 4.269531 -3.332031 C 4.253906 -3.394531 4.191406 -3.425781 4.085938 -3.425781 C 4.058594 -3.425781 4.027344 -3.425781 3.996094 -3.425781 C 3.96875 -3.425781 3.9375 -3.425781 3.90625 -3.425781 C 3.863281 -3.425781 3.816406 -3.425781 3.769531 -3.4375 C 3.726562 -3.453125 3.679688 -3.453125 3.636719 -3.453125 C 3.589844 -3.453125 3.53125 -3.394531 3.4375 -3.257812 C 3.347656 -3.121094 3.257812 -2.972656 3.152344 -2.789062 C 3.046875 -2.609375 2.941406 -2.414062 2.835938 -2.21875 C 2.730469 -2.019531 2.625 -1.855469 2.535156 -1.71875 C 2.445312 -1.570312 2.339844 -1.417969 2.21875 -1.28125 C 2.097656 -1.144531 1.960938 -1.027344 1.824219 -0.933594 C 1.6875 -0.84375 1.554688 -0.769531 1.433594 -0.707031 C 1.3125 -0.648438 1.207031 -0.617188 1.117188 -0.617188 C 1.101562 -0.617188 1.039062 -0.617188 0.949219 -0.632812 C 0.859375 -0.648438 0.816406 -0.695312 0.800781 -0.769531 C 0.84375 -0.785156 0.859375 -0.816406 0.859375 -0.859375 C 0.859375 -0.890625 0.859375 -0.921875 0.84375 -0.933594 C 0.859375 -0.933594 0.890625 -0.964844 0.933594 -1.027344 C 0.980469 -1.085938 1.027344 -1.160156 1.085938 -1.238281 C 1.144531 -1.34375 1.222656 -1.449219 1.3125 -1.570312 C 1.386719 -1.675781 1.449219 -1.78125 1.492188 -1.871094 C 1.539062 -1.960938 1.628906 -2.019531 1.75 -2.050781 C 1.855469 -2.097656 1.945312 -2.15625 2.035156 -2.246094 C 2.125 -2.339844 2.203125 -2.429688 2.277344 -2.519531 C 2.351562 -2.609375 2.414062 -2.683594 2.457031 -2.746094 C 2.503906 -2.804688 2.535156 -2.851562 2.550781 -2.867188 C 2.5625 -3 2.59375 -3.136719 2.65625 -3.273438 C 2.714844 -3.410156 2.804688 -3.53125 2.941406 -3.636719 C 2.988281 -3.664062 3 -3.726562 3 -3.816406 C 3 -3.921875 2.941406 -4.011719 2.804688 -4.074219 C 2.667969 -4.132812 2.5625 -4.179688 2.488281 -4.207031 C 2.414062 -4.164062 2.308594 -4.132812 2.1875 -4.117188 C 2.066406 -4.101562 1.945312 -4.074219 1.808594 -4.027344 C 1.675781 -3.980469 1.523438 -3.921875 1.359375 -3.847656 C 1.191406 -3.769531 1.027344 -3.664062 0.859375 -3.53125 C 0.542969 -3.273438 0.257812 -2.988281 0 -2.667969 C -0.257812 -2.351562 -0.378906 -1.992188 -0.378906 -1.582031 C -0.378906 -1.476562 -0.347656 -1.371094 -0.285156 -1.28125 C -0.226562 -1.191406 -0.195312 -1.101562 -0.195312 -1.011719 C -0.152344 -0.816406 -0.105469 -0.679688 -0.0585938 -0.617188 C -0.015625 -0.558594 0.015625 -0.527344 0.03125 -0.527344 C 0.164062 -0.453125 0.273438 -0.363281 0.332031 -0.257812 C 0.390625 -0.152344 0.484375 -0.105469 0.617188 -0.105469 C 0.695312 -0.121094 0.769531 -0.121094 0.84375 -0.121094 C 0.921875 -0.121094 0.980469 -0.152344 1.027344 -0.195312 C 1.070312 -0.179688 1.144531 -0.164062 1.25 -0.164062 C 1.371094 -0.164062 1.523438 -0.210938 1.71875 -0.300781 C 1.914062 -0.390625 2.066406 -0.496094 2.1875 -0.617188 C 2.1875 -0.574219 2.1875 -0.542969 2.1875 -0.511719 C 2.1875 -0.484375 2.1875 -0.453125 2.1875 -0.421875 C 2.1875 -0.347656 2.203125 -0.242188 2.246094 -0.105469 C 2.292969 0.03125 2.339844 0.164062 2.398438 0.285156 C 2.457031 0.40625 2.535156 0.511719 2.625 0.601562 C 2.714844 0.695312 2.804688 0.738281 2.910156 0.738281 C 2.925781 0.738281 2.941406 0.738281 2.957031 0.722656 C 2.972656 0.722656 2.988281 0.722656 3 0.738281 C 2.988281 0.738281 2.972656 0.738281 2.972656 0.738281 C 2.972656 0.738281 2.957031 0.738281 2.941406 0.738281 C 3.015625 0.769531 3.078125 0.800781 3.136719 0.816406 C 3.199219 0.828125 3.257812 0.859375 3.304688 0.890625 C 3.304688 0.875 3.304688 0.875 3.304688 0.875 C 3.304688 0.875 3.304688 0.875 3.304688 0.859375 L 3.332031 0.921875 C 3.394531 0.875 3.453125 0.859375 3.53125 0.875 C 3.605469 0.890625 3.664062 0.875 3.710938 0.828125 C 3.726562 0.84375 3.742188 0.84375 3.769531 0.84375 C 3.90625 0.84375 3.980469 0.816406 4.011719 0.753906 C 4.042969 0.695312 4.074219 0.679688 4.101562 0.695312 C 4.101562 0.679688 4.101562 0.679688 4.101562 0.679688 C 4.101562 0.679688 4.101562 0.679688 4.101562 0.664062 C 4.101562 0.648438 4.117188 0.648438 4.132812 0.648438 L 4.191406 0.648438 C 4.207031 0.632812 4.222656 0.617188 4.253906 0.601562 C 4.285156 0.589844 4.300781 0.574219 4.3125 0.558594 C 4.328125 0.574219 4.328125 0.589844 4.328125 0.601562 C 4.480469 0.484375 4.617188 0.347656 4.734375 0.195312 C 4.855469 0.046875 4.949219 -0.0742188 5.023438 -0.152344 C 5.066406 -0.195312 5.144531 -0.273438 5.25 -0.378906 C 5.355469 -0.484375 5.460938 -0.601562 5.566406 -0.738281 C 5.671875 -0.875 5.761719 -0.996094 5.835938 -1.117188 C 5.914062 -1.238281 5.941406 -1.34375 5.941406 -1.417969 C 5.941406 -1.464844 5.929688 -1.492188 5.898438 -1.492188 Z M 6.046875 -1.765625" transform="translate(229.720009, 203.914557)"/></g></g></g><g fill="#000" fill-opacity="1"><g><g><path d="M 8.101562 -1.660156 C 8.101562 -1.75 8.070312 -1.796875 8.023438 -1.796875 C 7.980469 -1.796875 7.917969 -1.75 7.859375 -1.644531 C 7.527344 -1.160156 7.226562 -0.816406 6.96875 -0.617188 C 6.710938 -0.421875 6.472656 -0.316406 6.257812 -0.316406 L 6.230469 -0.453125 C 6.183594 -0.496094 6.140625 -0.558594 6.09375 -0.632812 C 6.046875 -0.707031 6.035156 -0.785156 6.035156 -0.84375 C 6.035156 -0.875 6.035156 -0.90625 6.046875 -0.933594 C 6.0625 -0.964844 6.0625 -0.996094 6.0625 -1.039062 C 6.046875 -1.027344 6.035156 -1.027344 6.035156 -1.027344 C 6.035156 -1.027344 6.019531 -1.027344 6.003906 -1.011719 C 6.003906 -1.027344 6.003906 -1.027344 5.988281 -1.027344 C 6.003906 -1.039062 6.019531 -1.054688 6.035156 -1.070312 L 6.019531 -1.070312 C 6.019531 -1.207031 6.046875 -1.359375 6.109375 -1.523438 C 6.167969 -1.6875 6.199219 -1.839844 6.199219 -1.976562 C 6.199219 -2.007812 6.167969 -2.035156 6.109375 -2.082031 C 6.046875 -2.125 5.988281 -2.171875 5.914062 -2.21875 C 5.835938 -2.261719 5.761719 -2.292969 5.6875 -2.324219 C 5.609375 -2.351562 5.566406 -2.367188 5.535156 -2.367188 C 5.519531 -2.367188 5.503906 -2.367188 5.492188 -2.367188 C 5.476562 -2.367188 5.460938 -2.367188 5.445312 -2.367188 C 5.292969 -2.367188 5.144531 -2.324219 4.992188 -2.21875 C 4.84375 -2.113281 4.707031 -2.007812 4.585938 -1.886719 C 4.464844 -1.765625 4.359375 -1.644531 4.269531 -1.539062 C 4.179688 -1.433594 4.132812 -1.371094 4.117188 -1.359375 C 4.117188 -1.371094 4.117188 -1.371094 4.101562 -1.371094 C 4.148438 -1.507812 4.164062 -1.660156 4.164062 -1.839844 C 4.164062 -1.914062 4.191406 -2.035156 4.253906 -2.1875 C 4.3125 -2.339844 4.34375 -2.488281 4.34375 -2.640625 C 4.34375 -2.730469 4.34375 -2.820312 4.34375 -2.910156 C 4.34375 -3 4.34375 -3.09375 4.34375 -3.183594 C 4.34375 -3.289062 4.3125 -3.378906 4.238281 -3.453125 C 4.164062 -3.53125 4.085938 -3.589844 3.996094 -3.648438 C 3.90625 -3.710938 3.832031 -3.753906 3.753906 -3.785156 C 3.679688 -3.816406 3.636719 -3.832031 3.621094 -3.832031 C 3.605469 -3.832031 3.589844 -3.832031 3.574219 -3.832031 C 3.558594 -3.832031 3.542969 -3.832031 3.53125 -3.832031 C 3.425781 -3.832031 3.320312 -3.769531 3.210938 -3.664062 C 3.105469 -3.558594 3 -3.4375 2.894531 -3.320312 C 2.789062 -3.199219 2.683594 -3.078125 2.59375 -2.957031 C 2.503906 -2.835938 2.429688 -2.777344 2.367188 -2.761719 C 2.382812 -2.835938 2.398438 -2.910156 2.414062 -2.988281 C 2.429688 -3.0625 2.429688 -3.136719 2.429688 -3.210938 C 2.429688 -3.257812 2.414062 -3.320312 2.367188 -3.394531 C 2.324219 -3.46875 2.277344 -3.53125 2.21875 -3.589844 C 2.15625 -3.648438 2.113281 -3.710938 2.066406 -3.753906 C 2.019531 -3.800781 1.992188 -3.816406 1.976562 -3.816406 C 1.902344 -3.832031 1.839844 -3.863281 1.796875 -3.90625 C 1.75 -3.953125 1.703125 -3.996094 1.660156 -4.058594 C 1.613281 -4.117188 1.554688 -4.164062 1.476562 -4.207031 C 1.402344 -4.253906 1.296875 -4.269531 1.160156 -4.269531 C 1.085938 -4.269531 1.027344 -4.238281 0.980469 -4.179688 C 0.933594 -4.117188 0.890625 -4.042969 0.859375 -3.953125 C 0.828125 -3.863281 0.800781 -3.785156 0.785156 -3.710938 C 0.769531 -3.636719 0.753906 -3.574219 0.738281 -3.542969 C 0.601562 -3.199219 0.484375 -2.882812 0.378906 -2.609375 C 0.273438 -2.339844 0.195312 -2.097656 0.152344 -1.902344 C 0.0898438 -1.71875 0.0585938 -1.570312 0.0585938 -1.449219 C 0.0585938 -1.328125 0.03125 -1.207031 -0.015625 -1.101562 C -0.0898438 -0.933594 -0.136719 -0.753906 -0.136719 -0.574219 C -0.136719 -0.390625 -0.136719 -0.226562 -0.136719 -0.0742188 C -0.121094 0 -0.105469 0.0898438 -0.0742188 0.195312 C -0.046875 0.300781 0.015625 0.363281 0.0898438 0.363281 C 0.136719 0.363281 0.195312 0.347656 0.285156 0.316406 C 0.378906 0.285156 0.46875 0.257812 0.558594 0.210938 C 0.648438 0.164062 0.722656 0.136719 0.785156 0.105469 C 0.84375 0.0742188 0.875 0.046875 0.875 0.03125 C 0.996094 0.03125 1.117188 -0.015625 1.238281 -0.121094 C 1.359375 -0.226562 1.464844 -0.347656 1.570312 -0.46875 C 1.675781 -0.589844 1.765625 -0.707031 1.839844 -0.828125 C 1.914062 -0.949219 1.960938 -1.027344 1.992188 -1.054688 C 2.007812 -1.054688 2.035156 -1.085938 2.082031 -1.144531 C 2.125 -1.207031 2.171875 -1.265625 2.21875 -1.34375 C 2.261719 -1.417969 2.324219 -1.507812 2.382812 -1.613281 C 2.382812 -1.597656 2.382812 -1.582031 2.367188 -1.570312 C 2.414062 -1.675781 2.488281 -1.78125 2.59375 -1.886719 C 2.578125 -1.886719 2.5625 -1.886719 2.5625 -1.886719 C 2.5625 -1.886719 2.550781 -1.886719 2.535156 -1.902344 C 2.640625 -1.914062 2.699219 -1.945312 2.714844 -2.007812 C 2.730469 -2.066406 2.730469 -2.125 2.730469 -2.203125 C 2.746094 -2.1875 2.746094 -2.1875 2.746094 -2.1875 C 2.746094 -2.1875 2.746094 -2.1875 2.761719 -2.171875 C 2.777344 -2.230469 2.804688 -2.324219 2.851562 -2.445312 C 2.894531 -2.5625 2.957031 -2.683594 3.015625 -2.804688 C 3.078125 -2.925781 3.136719 -3.03125 3.199219 -3.121094 C 3.257812 -3.210938 3.304688 -3.257812 3.347656 -3.257812 C 3.363281 -3.257812 3.378906 -3.242188 3.394531 -3.210938 C 3.410156 -3.183594 3.425781 -3.152344 3.425781 -3.136719 C 3.378906 -2.941406 3.320312 -2.730469 3.242188 -2.519531 C 3.167969 -2.308594 3.09375 -2.113281 3.015625 -1.929688 C 2.941406 -1.75 2.882812 -1.582031 2.820312 -1.449219 C 2.761719 -1.3125 2.730469 -1.222656 2.730469 -1.191406 C 2.730469 -1.175781 2.730469 -1.144531 2.746094 -1.117188 C 2.761719 -1.085938 2.777344 -1.054688 2.789062 -1.039062 C 2.746094 -1.039062 2.730469 -1.027344 2.730469 -0.980469 L 2.730469 -0.875 C 2.730469 -0.800781 2.730469 -0.695312 2.746094 -0.574219 C 2.761719 -0.453125 2.777344 -0.332031 2.804688 -0.210938 C 2.835938 -0.0898438 2.867188 0.015625 2.894531 0.105469 C 2.925781 0.195312 2.972656 0.242188 3.015625 0.242188 C 3.105469 0.242188 3.199219 0.210938 3.304688 0.152344 C 3.410156 0.0898438 3.515625 0.0585938 3.621094 0.0585938 C 3.636719 0.0742188 3.648438 0.0742188 3.664062 0.0742188 C 3.679688 0.0742188 3.710938 0.0585938 3.753906 0.015625 L 3.890625 -0.121094 C 3.9375 -0.164062 3.980469 -0.210938 4.027344 -0.257812 C 4.074219 -0.300781 4.101562 -0.332031 4.117188 -0.347656 C 4.433594 -0.542969 4.660156 -0.707031 4.796875 -0.859375 C 4.933594 -1.011719 5.023438 -1.132812 5.066406 -1.238281 C 5.113281 -1.34375 5.144531 -1.417969 5.171875 -1.476562 C 5.203125 -1.539062 5.265625 -1.570312 5.371094 -1.570312 C 5.414062 -1.570312 5.429688 -1.554688 5.429688 -1.523438 L 5.429688 -1.449219 C 5.429688 -1.238281 5.386719 -1.027344 5.308594 -0.816406 C 5.234375 -0.601562 5.1875 -0.378906 5.1875 -0.136719 C 5.1875 0.105469 5.25 0.273438 5.371094 0.347656 C 5.492188 0.421875 5.609375 0.46875 5.746094 0.46875 C 5.867188 0.46875 5.957031 0.453125 6.035156 0.421875 C 6.109375 0.390625 6.183594 0.363281 6.257812 0.316406 C 6.335938 0.273438 6.410156 0.210938 6.5 0.136719 C 6.589844 0.0585938 6.710938 -0.03125 6.863281 -0.136719 C 6.9375 -0.179688 7 -0.226562 7.042969 -0.273438 C 7.089844 -0.316406 7.121094 -0.363281 7.121094 -0.40625 C 7.132812 -0.390625 7.148438 -0.390625 7.164062 -0.390625 C 7.164062 -0.40625 7.210938 -0.453125 7.300781 -0.542969 C 7.390625 -0.632812 7.480469 -0.722656 7.570312 -0.828125 C 7.664062 -0.933594 7.753906 -1.039062 7.84375 -1.144531 C 7.933594 -1.25 7.980469 -1.34375 7.980469 -1.417969 Z M 8.101562 -1.660156" transform="translate(234.878203, 203.914557)"/></g></g></g></svg>